<!DOCTYPE svg PUBLIC "-//W3C//DTD SVG 1.0//EN"    "http://www.w3.org/TR/2001/REC-SVG-20010904/DTD/svg10.dtd" [
	<!ENTITY ns_flows "http://ns.adobe.com/Flows/1.0/">
	<!ENTITY ns_extend "http://ns.adobe.com/Extensibility/1.0/">
	<!ENTITY ns_ai "http://ns.adobe.com/AdobeIllustrator/10.0/">
	<!ENTITY ns_graphs "http://ns.adobe.com/Graphs/1.0/">
	<!ENTITY ns_vars "http://ns.adobe.com/Variables/1.0/">
	<!ENTITY ns_imrep "http://ns.adobe.com/ImageReplacement/1.0/">
	<!ENTITY ns_sfw "http://ns.adobe.com/SaveForWeb/1.0/">
	<!ENTITY ns_custom "http://ns.adobe.com/GenericCustomNamespace/1.0/">
	<!ENTITY ns_adobe_xpath "http://ns.adobe.com/XPath/1.0/">
	<!ENTITY ns_svg "http://www.w3.org/2000/svg">
	<!ENTITY ns_xlink "http://www.w3.org/1999/xlink">
]>
<svg 
	xmlns:x="&ns_extend;"
	xmlns:i="&ns_ai;"
	xmlns:graph="&ns_graphs;"
	i:viewOrigin="133.0557 651.6289"
	i:rulerOrigin="0 0"
	i:pageBounds="0 841.8896 595.2754 0"
	xmlns="&ns_svg;"
	xmlns:xlink="&ns_xlink;"
	xmlns:a="http://ns.adobe.com/AdobeSVGViewerExtensions/3.0/"
	width="330.276"
	height="330.272"
	viewBox="0 0 330.276 330.272"
	overflow="visible"
	enable-background="new 0 0 330.276 330.272"
	xml:space="preserve">
	<g id="close">
		<circle i:knockout="Off" fill="#2981c4" cx="165.138" cy="165.138" r="165.138"/> 
		<path fill="#FFFFFF" d="M188.387,165.372l71.243-71.243c6.477-6.477,6.477-17.132,0-23.608c-6.477-6.477-17.132-6.477-23.608,0
			l-71.247,71.243L93.531,70.52c-6.477-6.477-17.132-6.477-23.608,0c-3.238,3.238-4.91,7.521-4.91,11.804
			c0,4.283,1.671,8.566,4.91,11.804l71.243,71.243l-71.243,71.244c-3.238,3.238-4.91,7.521-4.91,11.804s1.671,8.566,4.91,11.805
			c6.477,6.477,17.132,6.477,23.608,0l71.244-71.244l71.247,71.244c6.477,6.477,17.132,6.477,23.608,0s6.477-17.132,0-23.608
			L188.387,165.372z"/>
	</g>
</svg>
