<svg id="rawilogo" xmlns="http://www.w3.org/2000/svg" enable-background="new 0 0 460.092 150.965" overflow="visible" viewBox="0 0 460.092 150.965" height="150.965" width="460.092" fill="#2981c4" stroke="#2981c4" stroke-width="1.12">
  <path id="ipunkt" d="m 135.378,109.513 c -1.715,1.819 -1.984,6.984 -0.848,8.952 0.693,0.8 2.05,1.382 4.247,-0.986 1.778,-2.146 2.349,-6.309 1.479,-8.106 -0.917,-1.664 -3.162,-1.68 -4.878,0.14 z"/>
  <path id="istrich" d="m 130.818,129.637 c -1.043,4.428 -3.246,13.427 -2.526,17.818 1.657,3.061 5.833,3.816 7.021,0.036 -1.837,-6.084 5.699,-22.046 0.294,-23.146 -2.903,-0.2 -3.889,2.231 -4.789,5.292 z"/>
  <path id="ra" d="m 175.315,9.72 c -2.772,1.908 -10.437,8.1 -15.692,13.752 -5.257,5.58 -10.945,12.6 -16.454,21.996 -5.472,9.36 -10.122,19.027 -14.758,33.416 -4.044,13.207 -6.018,20.997 -8.444,30.7 -1.921,7.687 -4.476,18.297 -7.29,29.052 -2.88,-4.788 -12.376,-24.256 -17.561,-18.388 -5.832,6.479 -11.628,12.995 -17.351,19.512 -3.42,3.455 -28.125,-48.392 -46.196,-70.677 5.688,-4.607 12.168,-10.043 15.66,-14.219 3.492,-4.176 10.764,-12.456 13.355,-16.92 2.557,-4.428 5.869,-9.936 7.057,-14.58 1.224,-4.645 2.016,-9.612 0.252,-13.428 C 66.165,6.12 63.141,3.744 59.182,2.268 55.221,0.756 49.389,1.08 44.997,1.8 40.57,2.52 36.034,4.248 31.354,6.624 26.709,9.072 21.274,12.888 16.989,16.775 12.741,20.699 8.457,25.523 5.829,29.915 3.165,34.308 -2.558,42.911 1.293,42.768 3.058,40.788 4.713,34.02 7.558,29.772 10.401,25.56 14.253,21.06 18.213,17.567 22.173,14.075 26.745,10.979 31.173,8.891 35.637,6.767 40.677,5.039 44.853,4.319 49.029,3.6 52.701,3.6 56.05,4.536 c 3.312,0.936 6.047,2.628 7.451,5.94 1.369,3.276 1.116,7.488 0,11.808 -1.151,4.284 -4.427,9.54 -6.731,13.392 -2.269,3.853 -8.82,11.269 -11.773,14.652 -2.88,3.42 -9.359,8.928 -13.104,11.952 -3.708,2.988 -8.172,5.22 -11.809,7.524 -0.251,4.177 -0.504,10.691 -0.792,16.057 -0.323,5.399 -0.575,11.52 -0.827,16.344 -0.216,4.859 -1.296,9.648 0,13.752 4.463,1.043 6.696,0.72 9.684,-2.125 -1.441,-3.383 -1.441,-6.443 -1.764,-13.824 -0.216,-5.039 -0.324,-8.1 -0.612,-13.176 -0.216,-5.039 -0.504,-9.107 -0.937,-13.139 8.435,11.99 19.314,30.645 28.829,46.522 -5.31,5.343 -16.411,17.763 -21.953,24.721 -5.498,6.902 -5.076,5.976 1.152,2.34 3.212,-1.822 5.172,-2.834 9.718,-4.678 4.457,-1.808 12.209,-4.808 20.783,-6.546 5.435,8.542 9.6,14.217 11.296,14.062 6.121,-6.912 12.383,-14.214 18.575,-21.09 5.868,-6.588 14.319,24.12 21.447,20.88 3.241,-11.412 5.577,-24.293 8.541,-36.828 2.626,-11.105 4.65,-19.981 8.178,-32.145 4.487,-15.471 8.574,-24.605 14.109,-34.491 5.375,-8.772 9.28,-14.548 16.039,-22.12 6.746,-7.153 9.268,-9.187 15.202,-13.878 C 181.32,7.094 182.195,6.12 193.391,0 185.903,2.483 178.051,7.775 175.315,9.72 Z M 41.829,139.859 c 3.08,-4.27 10.165,-11.287 14.263,-15.611 2.399,3.976 4.683,7.708 6.788,11.036 -6.11,-0.6 -18.298,3.905 -21.051,4.575 z"/>
  <path id="L" d="m 182.48,68.224 h 9.797 v 74.479 h 28.563 v 6.964 h -38.36 z"/>
  <path id="O" d="m 227.214,109.535 c 0,-22.19 8.38,-42.61 30.57,-42.61 22.308,0 29.626,20.419 29.626,42.61 0,21.363 -7.318,41.43 -29.626,41.43 -22.19,0 -30.57,-20.067 -30.57,-41.43 z m 29.862,35.292 c 16.524,0 19.829,-20.302 19.829,-34.466 0,-17.469 -3.305,-37.299 -19.829,-37.299 -16.407,0 -19.357,19.83 -19.357,37.299 0,14.164 2.95,34.466 19.357,34.466 z"/>
  <path id="G" d="m 357.876,143.057 c -5.193,4.839 -14.399,7.908 -24.669,7.908 -24.079,0 -33.167,-18.296 -33.167,-43.082 0,-20.892 6.964,-40.958 30.925,-40.958 22.19,0 27.737,15.226 27.737,23.252 h -11.331 c 0,-8.616 -4.132,-17.115 -16.17,-17.115 -17.233,0 -20.656,19.357 -20.656,34.229 0,17.705 4.249,37.535 23.606,37.535 7.908,0 11.686,-3.069 13.928,-5.194 v -29.035 h -18.768 v -6.729 h 28.564 v 39.189 z"/>
  <path id="I" d="m 377.233,68.224 h 9.797 v 81.442 h -9.797 z"/>
  <path id="C" d="m 456.905,145.653 c -3.896,2.242 -10.859,5.312 -19.948,5.312 -25.141,0 -32.813,-21.954 -32.813,-43.555 0,-15.462 5.43,-40.485 30.334,-40.485 16.643,0 25.613,10.977 25.613,23.371 h -11.567 c 0,-7.437 -3.068,-17.233 -14.754,-17.233 -16.761,0 -19.121,21.01 -19.121,32.932 0,19.357 5.665,38.006 23.37,38.006 10.151,0 14.519,-4.249 18.886,-7.554 z"/>
</svg>
